<?xml version="1.0" encoding="utf-8"?>
<!-- Generator: Adobe Illustrator 17.0.0, SVG Export Plug-In . SVG Version: 6.00 Build 0)  -->
<!DOCTYPE svg PUBLIC "-//W3C//DTD SVG 1.1//EN" "http://www.w3.org/Graphics/SVG/1.1/DTD/svg11.dtd" [
	<!ENTITY ns_extend "http://ns.adobe.com/Extensibility/1.0/">
	<!ENTITY ns_ai "http://ns.adobe.com/AdobeIllustrator/10.0/">
	<!ENTITY ns_graphs "http://ns.adobe.com/Graphs/1.0/">
	<!ENTITY ns_vars "http://ns.adobe.com/Variables/1.0/">
	<!ENTITY ns_imrep "http://ns.adobe.com/ImageReplacement/1.0/">
	<!ENTITY ns_sfw "http://ns.adobe.com/SaveForWeb/1.0/">
	<!ENTITY ns_custom "http://ns.adobe.com/GenericCustomNamespace/1.0/">
	<!ENTITY ns_adobe_xpath "http://ns.adobe.com/XPath/1.0/">
]>
<svg version="1.1" id="layer" xmlns:x="&ns_extend;" xmlns:i="&ns_ai;" xmlns:graph="&ns_graphs;"
	 xmlns="http://www.w3.org/2000/svg" xmlns:xlink="http://www.w3.org/1999/xlink" x="0px" y="0px" width="800px" height="350px"
	 viewBox="0 0 800 350" enable-background="new 0 0 800 350" xml:space="preserve">
<metadata>
	<sfw  xmlns="&ns_sfw;">
		<slices></slices>
		<sliceSourceBounds  height="350" width="800" bottomLeftOrigin="true" y="122.5" x="20.5"></sliceSourceBounds>
	</sfw>
</metadata>
<rect id="background" x="0" width="800" height="350"/>
<g>
	<path fill="#FFFFFF" d="M321.609,144.59c-1.281,0.913-2.91,1.567-4.89,1.965c-1.98,0.396-4.011,0.595-6.09,0.595
		c-2.52,0-4.911-0.39-7.17-1.17c-2.26-0.78-4.251-2.04-5.97-3.78c-1.72-1.739-3.09-3.999-4.11-6.779s-1.53-6.15-1.53-10.11
		c0-4.119,0.57-7.569,1.71-10.35c1.14-2.78,2.619-5.02,4.44-6.721c1.819-1.699,3.849-2.919,6.09-3.66
		c2.24-0.739,4.479-1.109,6.72-1.109c2.4,0,4.43,0.16,6.09,0.479c1.659,0.321,3.03,0.7,4.11,1.141l-1.62,6.96
		c-0.92-0.439-2.01-0.76-3.27-0.96c-1.26-0.2-2.79-0.3-4.59-0.3c-3.321,0-5.991,1.183-8.01,3.547
		c-2.021,2.365-3.03,6.033-3.03,11.003c0,2.164,0.24,4.139,0.72,5.922c0.48,1.784,1.209,3.308,2.19,4.569
		c0.979,1.263,2.199,2.245,3.66,2.946c1.459,0.701,3.15,1.052,5.07,1.052c1.8,0,3.32-0.18,4.56-0.539
		c1.239-0.36,2.319-0.82,3.24-1.381L321.609,144.59z"/>
	<path fill="#FFFFFF" d="M323.013,125.31c0-6.999,1.54-12.39,4.62-16.17c3.08-3.78,7.479-5.67,13.2-5.67c3,0,5.619,0.521,7.86,1.56
		c2.24,1.041,4.1,2.521,5.58,4.44c1.479,1.92,2.58,4.221,3.3,6.899c0.72,2.681,1.08,5.661,1.08,8.94c0,7-1.551,12.39-4.65,16.17
		c-3.1,3.78-7.491,5.67-13.17,5.67c-3.041,0-5.68-0.521-7.92-1.56c-2.241-1.04-4.09-2.521-5.55-4.44
		c-1.46-1.92-2.55-4.22-3.27-6.899C323.373,131.57,323.013,128.59,323.013,125.31z M331.653,125.31c0,2.121,0.18,4.07,0.54,5.85
		c0.36,1.78,0.909,3.311,1.65,4.591c0.74,1.28,1.689,2.279,2.85,3c1.16,0.72,2.54,1.079,4.14,1.079c2.919,0,5.18-1.14,6.78-3.42
		c1.6-2.279,2.4-5.979,2.4-11.1c0-2.04-0.17-3.939-0.51-5.7c-0.34-1.76-0.87-3.3-1.59-4.62c-0.72-1.319-1.661-2.349-2.82-3.09
		c-1.161-0.739-2.58-1.109-4.26-1.109c-2.92,0-5.181,1.17-6.78,3.51C332.453,116.64,331.653,120.31,331.653,125.31z"/>
	<path fill="#FFFFFF" d="M396.429,124.529l0.9-8.34h-0.361l-2.58,6.72l-8.939,15.66h-2.641l-9.419-15.72l-2.64-6.66h-0.3l1.2,8.28
		v21.84h-7.8v-42h7.5l11.221,19.2l1.979,4.8h0.24l1.801-4.92l10.619-19.08h7.441v42h-8.221V124.529z"/>
	<path fill="#FFFFFF" d="M411.283,104.729c1.681-0.319,3.53-0.57,5.551-0.75c2.019-0.18,4.029-0.27,6.029-0.27
		c2.08,0,4.17,0.17,6.271,0.51c2.1,0.34,3.99,1.02,5.67,2.04c1.68,1.02,3.05,2.44,4.11,4.26c1.059,1.82,1.59,4.19,1.59,7.11
		c0,2.64-0.461,4.87-1.38,6.689c-0.921,1.821-2.141,3.311-3.66,4.471c-1.521,1.16-3.251,2-5.19,2.52
		c-1.94,0.521-3.95,0.78-6.03,0.78c-0.2,0-0.52,0-0.96,0s-0.899-0.01-1.38-0.03c-0.479-0.02-0.95-0.05-1.41-0.09
		c-0.46-0.039-0.79-0.08-0.989-0.12v14.46h-8.221V104.729z M423.523,110.79c-0.801,0-1.56,0.029-2.28,0.09
		c-0.72,0.06-1.3,0.13-1.739,0.21v13.62c0.159,0.04,0.399,0.08,0.72,0.119c0.319,0.041,0.66,0.07,1.02,0.091
		c0.36,0.021,0.71,0.029,1.051,0.029c0.339,0,0.589,0,0.75,0c1.08,0,2.149-0.099,3.21-0.3c1.059-0.199,2.01-0.57,2.85-1.109
		c0.84-0.54,1.51-1.29,2.01-2.25c0.5-0.961,0.75-2.221,0.75-3.78c0-1.32-0.239-2.409-0.72-3.271c-0.479-0.859-1.11-1.55-1.89-2.069
		c-0.78-0.52-1.671-0.88-2.67-1.08C425.583,110.89,424.563,110.79,423.523,110.79z"/>
	<path fill="#FFFFFF" d="M467.39,104.31h7.8v27.12c0,2.721-0.36,5.061-1.08,7.02c-0.72,1.961-1.721,3.581-3,4.86
		c-1.28,1.28-2.841,2.22-4.68,2.82c-1.841,0.6-3.861,0.899-6.061,0.899c-10.641,0-15.96-4.859-15.96-14.58v-28.14h8.22v26.52
		c0,1.641,0.15,3.03,0.45,4.171c0.3,1.14,0.77,2.061,1.41,2.76c0.64,0.7,1.44,1.2,2.4,1.5s2.079,0.45,3.359,0.45
		c2.521,0,4.34-0.7,5.46-2.101c1.12-1.399,1.681-3.66,1.681-6.78V104.31z"/>
	<path fill="#FFFFFF" d="M511.465,111.63h-12.24v34.68h-8.22v-34.68h-12.3v-7.32h32.76V111.63z"/>
	<path fill="#FFFFFF" d="M531.229,137.01h-12.899l-3.181,9.3h-8.22l15.12-42.3h6.06l15.12,42.3h-8.64L531.229,137.01z
		 M520.429,130.409h9l-3.12-9.359l-1.26-6.601h-0.3l-1.261,6.66L520.429,130.409z"/>
	<path fill="#FFFFFF" d="M571.423,111.63h-12.24v34.68h-8.22v-34.68h-12.3v-7.32h32.76V111.63z"/>
	<path fill="#FFFFFF" d="M575.406,104.31h8.22v42h-8.22V104.31z"/>
	<path fill="#FFFFFF" d="M589.308,125.31c0-6.999,1.539-12.39,4.62-16.17c3.079-3.78,7.479-5.67,13.199-5.67
		c3,0,5.62,0.521,7.86,1.56c2.239,1.041,4.1,2.521,5.58,4.44c1.479,1.92,2.58,4.221,3.3,6.899c0.72,2.681,1.08,5.661,1.08,8.94
		c0,7-1.551,12.39-4.65,16.17s-7.49,5.67-13.17,5.67c-3.04,0-5.68-0.521-7.92-1.56c-2.24-1.04-4.09-2.521-5.55-4.44
		c-1.461-1.92-2.55-4.22-3.27-6.899C589.667,131.57,589.308,128.59,589.308,125.31z M597.947,125.31c0,2.121,0.18,4.07,0.54,5.85
		c0.36,1.78,0.909,3.311,1.65,4.591c0.739,1.28,1.689,2.279,2.85,3c1.16,0.72,2.54,1.079,4.14,1.079c2.92,0,5.18-1.14,6.78-3.42
		c1.6-2.279,2.4-5.979,2.4-11.1c0-2.04-0.171-3.939-0.511-5.7c-0.34-1.76-0.869-3.3-1.59-4.62c-0.72-1.319-1.66-2.349-2.819-3.09
		c-1.161-0.739-2.58-1.109-4.261-1.109c-2.92,0-5.181,1.17-6.779,3.51C598.747,116.64,597.947,120.31,597.947,125.31z"/>
	<path fill="#FFFFFF" d="M640.584,124.409l-3.3-6.6h-0.3l0.96,6.6v21.9h-7.801v-42.3h6l15.9,22.38l3.18,6.42h0.301l-0.961-6.42
		v-22.08h7.801v42.3h-6L640.584,124.409z"/>
	<path fill="#FFFFFF" d="M689.928,137.01h-12.899l-3.181,9.3h-8.22l15.12-42.3h6.06l15.12,42.3h-8.64L689.928,137.01z
		 M679.128,130.409h9l-3.12-9.359l-1.26-6.601h-0.3l-1.261,6.66L679.128,130.409z"/>
	<path fill="#FFFFFF" d="M731.771,146.31h-26.58v-42h8.221v34.68h18.359V146.31z"/>
	<path fill="#FFFFFF" d="M293.169,156.729c1.68-0.319,3.53-0.57,5.55-0.75c2.02-0.18,4.029-0.27,6.03-0.27
		c2.079,0,4.17,0.17,6.27,0.51c2.1,0.34,3.99,1.02,5.67,2.04c1.68,1.02,3.05,2.44,4.11,4.26c1.06,1.82,1.59,4.19,1.59,7.11
		c0,2.64-0.46,4.87-1.38,6.689c-0.92,1.821-2.14,3.311-3.66,4.471c-1.521,1.16-3.25,2-5.19,2.52c-1.94,0.521-3.951,0.78-6.03,0.78
		c-0.201,0-0.521,0-0.96,0c-0.441,0-0.9-0.01-1.38-0.03c-0.48-0.02-0.951-0.05-1.41-0.09c-0.46-0.039-0.791-0.08-0.99-0.12v14.46
		h-8.22V156.729z M305.409,162.79c-0.8,0-1.56,0.029-2.28,0.09c-0.72,0.06-1.3,0.13-1.74,0.21v13.62
		c0.16,0.04,0.399,0.08,0.72,0.119c0.32,0.041,0.66,0.07,1.02,0.091s0.709,0.029,1.05,0.029c0.339,0,0.59,0,0.75,0
		c1.08,0,2.15-0.099,3.21-0.3c1.06-0.199,2.01-0.57,2.85-1.109c0.84-0.54,1.509-1.29,2.01-2.25c0.5-0.961,0.75-2.221,0.75-3.78
		c0-1.32-0.24-2.409-0.72-3.271c-0.48-0.859-1.11-1.55-1.89-2.069c-0.78-0.52-1.67-0.88-2.67-1.08
		C307.469,162.89,306.449,162.79,305.409,162.79z"/>
	<path fill="#FFFFFF" d="M326.373,156.729c0.919-0.159,1.91-0.31,2.97-0.45c1.06-0.14,2.12-0.249,3.18-0.33
		c1.06-0.079,2.09-0.14,3.09-0.18c1-0.039,1.92-0.06,2.76-0.06c1.959,0,3.89,0.18,5.79,0.54c1.899,0.359,3.6,0.98,5.1,1.859
		c1.5,0.881,2.7,2.091,3.6,3.63c0.9,1.541,1.35,3.471,1.35,5.79c0,3.44-0.801,6.24-2.4,8.4c-1.601,2.16-3.741,3.66-6.42,4.5
		l2.94,1.86l9.6,16.02h-9.48l-9.54-16.44l-4.32-0.779v17.22h-8.22V156.729z M338.973,163.029c-0.84,0-1.671,0.021-2.49,0.061
		c-0.82,0.04-1.45,0.12-1.89,0.239v12.181h3.48c2.28,0,4.1-0.52,5.46-1.561c1.359-1.039,2.04-2.76,2.04-5.159
		c0-1.801-0.561-3.211-1.68-4.23C342.772,163.54,341.132,163.029,338.973,163.029z"/>
	<path fill="#FFFFFF" d="M362.024,156.31h8.22v42h-8.22V156.31z"/>
	<path fill="#FFFFFF" d="M391.615,180.97l1.08,7.14h0.3l1.2-7.2l8.039-24.6h8.641l-15.601,42.3h-5.88l-15.72-42.3h9.54
		L391.615,180.97z"/>
	<path fill="#FFFFFF" d="M430.471,189.01h-12.899l-3.181,9.3h-8.22l15.12-42.3h6.06l15.12,42.3h-8.64L430.471,189.01z
		 M419.671,182.409h9l-3.12-9.359l-1.26-6.601h-0.3l-1.261,6.66L419.671,182.409z"/>
	<path fill="#FFFFFF" d="M472.23,196.59c-1.28,0.913-2.91,1.567-4.89,1.965c-1.98,0.396-4.011,0.595-6.091,0.595
		c-2.52,0-4.91-0.39-7.17-1.17s-4.25-2.04-5.97-3.78c-1.721-1.739-3.09-3.999-4.11-6.779c-1.02-2.78-1.529-6.15-1.529-10.11
		c0-4.119,0.569-7.569,1.71-10.35c1.14-2.78,2.619-5.02,4.439-6.721c1.82-1.699,3.85-2.919,6.09-3.66
		c2.24-0.739,4.479-1.109,6.721-1.109c2.399,0,4.43,0.16,6.09,0.479c1.659,0.321,3.03,0.7,4.11,1.141l-1.62,6.96
		c-0.921-0.439-2.011-0.76-3.271-0.96s-2.79-0.3-4.59-0.3c-3.32,0-5.99,1.183-8.01,3.547c-2.021,2.365-3.03,6.033-3.03,11.003
		c0,2.164,0.24,4.139,0.72,5.922c0.48,1.784,1.21,3.308,2.19,4.569c0.979,1.263,2.199,2.245,3.66,2.946
		c1.459,0.701,3.149,1.052,5.069,1.052c1.801,0,3.32-0.18,4.561-0.539c1.239-0.36,2.319-0.82,3.24-1.381L472.23,196.59z"/>
	<path fill="#FFFFFF" d="M487.817,182.71l-13.8-26.4h9.78l7.68,15.78l0.84,4.439h0.301l0.899-4.56l7.44-15.66h8.819l-13.739,26.34
		v15.66h-8.221V182.71z"/>
	<path fill="#FFFFFF" d="M307.989,228.409h15.66v18.721c-1.68,1.4-3.69,2.42-6.03,3.06c-2.34,0.64-4.65,0.96-6.93,0.96
		c-2.681,0-5.17-0.42-7.47-1.26c-2.3-0.84-4.29-2.149-5.97-3.93c-1.68-1.779-3-4.051-3.96-6.811c-0.96-2.76-1.44-6.039-1.44-9.84
		c0-3.96,0.57-7.329,1.71-10.11c1.14-2.779,2.64-5.04,4.5-6.779c1.86-1.74,3.949-3,6.27-3.78c2.32-0.78,4.68-1.17,7.08-1.17
		c2.4,0,4.51,0.18,6.33,0.54c1.82,0.359,3.27,0.74,4.35,1.14l-1.68,6.9c-1-0.399-2.121-0.71-3.36-0.931
		c-1.24-0.219-2.82-0.329-4.74-0.329c-1.721,0-3.3,0.26-4.74,0.779c-1.44,0.521-2.69,1.371-3.75,2.55
		c-1.061,1.181-1.881,2.691-2.46,4.53c-0.581,1.841-0.87,4.08-0.87,6.72c0,2.521,0.279,4.69,0.84,6.511
		c0.56,1.82,1.34,3.32,2.34,4.5c1,1.18,2.169,2.05,3.51,2.609c1.34,0.561,2.77,0.84,4.29,0.84c1.04,0,2.06-0.129,3.06-0.39
		c1-0.26,1.839-0.649,2.52-1.17v-7.92l-9.06-0.96V228.409z"/>
	<path fill="#FFFFFF" d="M329.295,208.729c0.919-0.159,1.91-0.31,2.97-0.45c1.06-0.14,2.12-0.249,3.18-0.33
		c1.06-0.079,2.09-0.14,3.09-0.18c1-0.039,1.92-0.06,2.76-0.06c1.959,0,3.89,0.18,5.79,0.54c1.899,0.359,3.6,0.98,5.1,1.859
		c1.5,0.881,2.7,2.091,3.6,3.63c0.9,1.541,1.35,3.471,1.35,5.79c0,3.44-0.801,6.24-2.4,8.4c-1.601,2.16-3.741,3.66-6.42,4.5
		l2.94,1.86l9.6,16.02h-9.48l-9.54-16.44l-4.32-0.779v17.22h-8.22V208.729z M341.895,215.029c-0.84,0-1.671,0.021-2.49,0.061
		c-0.82,0.04-1.45,0.12-1.89,0.239v12.181h3.48c2.28,0,4.1-0.52,5.46-1.561c1.359-1.039,2.04-2.76,2.04-5.159
		c0-1.801-0.561-3.211-1.68-4.23C345.694,215.54,344.055,215.029,341.895,215.029z"/>
	<path fill="#FFFFFF" d="M361.694,229.31c0-6.999,1.54-12.39,4.62-16.17c3.08-3.78,7.479-5.67,13.2-5.67c3,0,5.619,0.521,7.859,1.56
		c2.24,1.041,4.1,2.521,5.58,4.44s2.58,4.221,3.301,6.899c0.719,2.681,1.08,5.661,1.08,8.94c0,7-1.551,12.39-4.65,16.17
		s-7.49,5.67-13.17,5.67c-3.041,0-5.68-0.521-7.92-1.56c-2.241-1.04-4.09-2.521-5.55-4.44c-1.46-1.92-2.55-4.22-3.27-6.899
		C362.055,235.57,361.694,232.59,361.694,229.31z M370.334,229.31c0,2.121,0.18,4.07,0.54,5.85c0.36,1.78,0.909,3.311,1.65,4.591
		c0.74,1.28,1.689,2.279,2.85,3c1.16,0.72,2.54,1.079,4.14,1.079c2.92,0,5.18-1.14,6.779-3.42c1.6-2.279,2.4-5.979,2.4-11.1
		c0-2.04-0.17-3.939-0.51-5.7c-0.34-1.76-0.869-3.3-1.59-4.62c-0.721-1.319-1.66-2.349-2.82-3.09c-1.16-0.739-2.58-1.109-4.26-1.109
		c-2.92,0-5.181,1.17-6.78,3.51C371.134,220.64,370.334,224.31,370.334,229.31z"/>
	<path fill="#FFFFFF" d="M425.211,208.31h7.8v27.12c0,2.721-0.36,5.061-1.08,7.02c-0.72,1.961-1.721,3.581-3,4.86
		c-1.28,1.28-2.841,2.22-4.68,2.82c-1.841,0.6-3.861,0.899-6.061,0.899c-10.641,0-15.96-4.859-15.96-14.58v-28.14h8.22v26.52
		c0,1.641,0.15,3.03,0.45,4.171c0.3,1.14,0.77,2.061,1.41,2.76c0.64,0.7,1.44,1.2,2.4,1.5s2.079,0.45,3.359,0.45
		c2.521,0,4.34-0.7,5.46-2.101c1.12-1.399,1.681-3.66,1.681-6.78V208.31z"/>
	<path fill="#FFFFFF" d="M439.515,208.729c1.681-0.319,3.53-0.57,5.551-0.75c2.019-0.18,4.029-0.27,6.029-0.27
		c2.08,0,4.17,0.17,6.271,0.51c2.1,0.34,3.99,1.02,5.67,2.04c1.68,1.02,3.05,2.44,4.11,4.26c1.059,1.82,1.59,4.19,1.59,7.11
		c0,2.64-0.461,4.87-1.38,6.689c-0.921,1.821-2.141,3.311-3.66,4.471c-1.521,1.16-3.251,2-5.19,2.52
		c-1.94,0.521-3.95,0.78-6.03,0.78c-0.2,0-0.52,0-0.96,0s-0.899-0.01-1.38-0.03c-0.479-0.02-0.95-0.05-1.41-0.09
		c-0.46-0.039-0.79-0.08-0.989-0.12v14.46h-8.221V208.729z M451.755,214.79c-0.801,0-1.56,0.029-2.28,0.09
		c-0.72,0.06-1.3,0.13-1.739,0.21v13.62c0.159,0.04,0.399,0.08,0.72,0.119c0.319,0.041,0.66,0.07,1.02,0.091
		c0.36,0.021,0.71,0.029,1.051,0.029c0.339,0,0.589,0,0.75,0c1.08,0,2.149-0.099,3.21-0.3c1.059-0.199,2.01-0.57,2.85-1.109
		c0.84-0.54,1.51-1.29,2.01-2.25c0.5-0.961,0.75-2.221,0.75-3.78c0-1.32-0.239-2.409-0.72-3.271c-0.479-0.859-1.11-1.55-1.89-2.069
		c-0.78-0.52-1.671-0.88-2.67-1.08C453.814,214.89,452.795,214.79,451.755,214.79z"/>
</g>
<g>
	<path fill="#FFFFFF" d="M172.201,211c-16.542,0-30-13.458-30-30s13.458-30,30-30s30,13.458,30,30S188.743,211,172.201,211z
		 M172.201,161c-11.028,0-20,8.972-20,20c0,11.028,8.972,20,20,20s20-8.972,20-20C192.201,169.972,183.229,161,172.201,161z"/>
	<path fill="#FFFFFF" d="M172.201,191c-5.514,0-10-4.486-10-10c0-5.514,4.486-10,10-10s10,4.486,10,10
		C182.201,186.514,177.716,191,172.201,191z"/>
	<g>
		<path fill="#FFFFFF" d="M187.696,217.875c-4.768,2.011-10.003,3.125-15.494,3.125c-22.056,0-40-17.944-40-40
			c0-22.056,17.944-40,40-40c4.52,0,8.862,0.765,12.918,2.153l4.419-9.049c-5.404-2.004-11.244-3.103-17.337-3.103
			c-27.57,0-50,22.43-50,50s22.43,50,50,50c7.309,0,14.25-1.589,20.514-4.42L187.696,217.875z"/>
		<path fill="#FFFFFF" d="M198.515,138.509l-4.415,9.042c10.891,7.154,18.102,19.472,18.102,33.449
			c0,12.991-6.229,24.55-15.852,31.862l5.023,8.709c12.603-9.087,20.83-23.882,20.83-40.571
			C222.201,163.079,212.72,147.338,198.515,138.509z"/>
	</g>
	<path fill="#FFFFFF" d="M115.211,199.728c-1.943-5.897-3.009-12.189-3.009-18.728c0-33.084,26.916-60,60-60
		c24.17,0,45.872,14.385,55.288,36.648l9.21-3.896C225.715,127.781,200.398,111,172.201,111c-38.598,0-70,31.402-70,70
		c0,7.923,1.342,15.534,3.779,22.641L115.211,199.728z"/>
	<path fill="#FFFFFF" d="M228.947,200.548C220.613,224.743,197.809,241,172.201,241c-23.003,0-43.013-13.019-53.078-32.069
		l-9.228,3.912C121.508,235.471,145.067,251,172.201,251c29.874,0,56.478-18.967,66.2-47.196L228.947,200.548z"/>
	<g>
		<path fill="#FFFFFF" d="M132.69,250.518C108.533,236.735,92.201,210.747,92.201,181c0-44.112,35.888-80,80-80
			c12.321,0,24.136,2.725,35.116,8.098l4.396-8.982C199.353,94.067,186.059,91,172.201,91c-49.626,0-90,40.374-90,90
			c0,33.689,18.61,63.109,46.086,78.534L132.69,250.518z"/>
		<path fill="#FFFFFF" d="M212.164,250.32c-12.093,6.986-25.912,10.68-39.963,10.68c-10.811,0-21.122-2.167-30.537-6.071
			l-4.401,9.011c10.748,4.544,22.555,7.059,34.938,7.059c15.805,0,31.354-4.157,44.966-12.021L212.164,250.32z"/>
	</g>
	<g>
		<path fill="#FFFFFF" d="M126.646,91.999C140.644,84.836,156.238,81,172.201,81c7.022,0,14.032,0.731,20.834,2.172l2.073-9.782
			c-7.482-1.586-15.19-2.39-22.908-2.39c-17.728,0-35.045,4.298-50.558,12.326L126.646,91.999z"/>
		<path fill="#FFFFFF" d="M172.201,281c-55.14,0-100-44.859-100-100c0-25.522,9.614-49.821,27.07-68.42
			c2.345-2.499,4.847-4.904,7.436-7.15c3.569-3.096,7.34-5.907,11.27-8.444l-4.997-8.665c-4.476,2.861-8.771,6.039-12.825,9.556
			c-2.846,2.469-5.596,5.114-8.174,7.86c-19.203,20.46-29.778,47.19-29.778,75.264c0,60.654,49.346,110,110,110
			c10.236,0,20.372-1.405,30.125-4.178l-2.734-9.619C190.729,279.723,181.513,281,172.201,281z"/>
	</g>
</g>
</svg>
